<svg xmlns="http://www.w3.org/2000/svg" width="126" height="126" viewBox="0 0 126 126" version="1.1">
	<path d="M 54.247 7.109 C 41.683 9.203, 27.739 16.823, 20.031 25.808 C 14.874 31.820, 9.478 42.067, 7.528 49.552 C 5.569 57.074, 5.569 70.926, 7.528 78.448 C 12.601 97.925, 29.025 114.344, 48.592 119.500 C 57.920 121.958, 71.087 121.574, 80.554 118.568 C 116.045 107.298, 131.427 66.362, 112.282 34.133 C 104.262 20.632, 89.197 10.292, 73.464 7.489 C 64.552 5.901, 61.822 5.847, 54.247 7.109 M 78.856 31.898 C 76.747 33.558, 76.202 33.621, 74.530 32.398 C 70.276 29.287, 63 31.767, 63 36.329 C 63 37.248, 62.550 38, 62 38 C 61.450 38, 61 37.605, 61 37.121 C 61 35.786, 55.496 33.793, 52.845 34.168 C 50.886 34.445, 48.574 38.285, 38.798 57.500 C 32.361 70.150, 27.074 81.480, 27.048 82.677 C 26.956 86.851, 34.899 90.662, 38.629 88.235 C 39.250 87.831, 44.288 78.500, 49.825 67.500 C 55.363 56.500, 59.917 47.814, 59.947 48.197 C 59.976 48.581, 58.200 56.198, 56 65.123 C 51.421 83.703, 51.296 85.053, 53.936 87.442 C 56.195 89.486, 62.461 89.939, 64.215 88.185 C 64.882 87.518, 67.984 76.742, 71.110 64.237 L 76.793 41.500 76.896 64.193 C 76.998 86.454, 77.042 86.916, 79.223 88.443 C 82.060 90.431, 85.940 90.431, 88.777 88.443 C 90.980 86.900, 91 86.650, 91 60 C 91 33.350, 90.980 33.100, 88.777 31.557 C 85.781 29.458, 81.784 29.595, 78.856 31.898" stroke="none" fill="black" fill-rule="evenodd"/>
</svg>